<svg width="117" height="120" viewBox="0 0 117 120" fill="none" xmlns="http://www.w3.org/2000/svg">
<g filter="url(#filter0_d_5305_2)">
<path d="M58.7773 0.493652L69.8696 7.28212L82.8087 5.97866L89.8571 16.9076L102.08 21.3473L103.689 34.2521L112.775 43.5557L108.625 55.8804L112.775 68.2051L103.689 77.5086L102.08 90.4134L89.8571 94.8531L82.8087 105.782L69.8696 104.479L58.7773 111.267L47.6851 104.479L34.7459 105.782L27.6976 94.8531L15.4743 90.4134L13.8658 77.5086L4.77929 68.2051L8.9293 55.8804L4.77929 43.5557L13.8658 34.2521L15.4743 21.3473L27.6976 16.9076L34.7459 5.97866L47.6851 7.28212L58.7773 0.493652Z" fill="#F5A524"/>
</g>
<g filter="url(#filter1_d_5305_2)">
<path d="M30.6735 63.5898V57.4361C30.6735 54.9502 31.4885 53.0756 33.1186 51.853L42.3696 44.8842C43.4292 44.1099 43.959 43.2541 43.959 42.3168C43.959 41.2164 43.3884 40.6459 42.1658 40.6459C41.0247 40.6459 40.0467 41.1757 39.2724 42.1945L30.5105 38.4045C32.9149 34.3292 36.9087 32.2915 42.4103 32.2915C46.2004 32.2915 49.3791 33.1881 51.9465 35.022C54.5547 36.8559 55.8588 39.1788 55.8588 42.0722C55.8588 44.9657 54.4732 47.4109 51.7428 49.4078L42.8994 55.8468H55.5328V63.5898H30.6735ZM67.8027 32.9436H79.4173L71.715 50.9157H75.9533V43.9469H86.9566V63.5898H75.9533V58.6587H70.2478H59.2445V52.9533L67.8027 32.9436Z" fill="white"/>
<path d="M29.6019 67.6294H33.7458V71.9421H36.2014V67.6294H40.3453V79.1709H36.2014V74.8582H33.7458V79.1709H29.6019V67.6294ZM47.1685 76.2548C48.1967 76.2241 48.7032 75.2726 48.7032 73.3848C48.7032 71.4971 48.1967 70.5608 47.1991 70.5608C46.2015 70.5608 45.6951 71.5124 45.6951 73.4002C45.6951 75.2879 46.1862 76.2395 47.1685 76.2548ZM47.1991 67.3532C48.9488 67.3532 50.3608 67.8596 51.4198 68.8572C52.4788 69.8548 53.0006 71.3436 53.0006 73.3388C53.0006 75.3033 52.4788 76.8227 51.4351 77.8817C50.3761 78.9253 48.9488 79.4472 47.1378 79.4472C45.3114 79.4472 43.8994 78.91 42.9018 77.851C41.9042 76.792 41.3977 75.2726 41.3977 73.3081C41.3977 71.3436 41.9195 69.8548 42.9632 68.8572C44.0222 67.8596 45.4188 67.3532 47.1991 67.3532ZM58.2512 75.1651V79.1709H54.1073V67.6294H60.7682C62.0574 67.6294 63.0857 67.9517 63.8224 68.6117C64.5898 69.2716 64.9581 70.1925 64.9581 71.3743C64.9581 73.0779 64.2521 74.2136 62.8401 74.8122L65.1576 79.1709H60.5533L58.6042 75.1651H58.2512ZM58.2512 70.5455V72.2491H59.8473C60.3231 72.2491 60.5687 71.9575 60.5687 71.405C60.5687 70.8218 60.3231 70.5455 59.8473 70.5455H58.2512ZM71.8623 74.8582L70.9875 71.4664L70.2508 74.8582H71.8623ZM72.6757 77.7743H69.5601L69.2225 79.1709H65.539L69.069 67.6294H73.8268L77.3568 79.1709H73.0594L72.6757 77.7743ZM82.5949 76.4544C83.2242 76.4544 83.5311 76.2702 83.5311 75.8865C83.5311 75.5028 83.3009 75.2419 82.8251 75.0884L81.3671 74.5973C79.0803 73.8452 77.9445 72.7709 77.9445 71.3436C77.9445 69.993 78.405 68.9954 79.3412 68.3508C80.2774 67.7062 81.5206 67.3839 83.086 67.3839C85.1426 67.3839 86.6927 68.2587 87.721 69.993L84.2678 71.1134C83.9608 70.6683 83.5618 70.4534 83.0553 70.4534C82.5642 70.4534 82.3186 70.6222 82.3186 70.9752C82.3186 71.2822 82.5949 71.5277 83.1628 71.7119L84.9124 72.2951C86.9997 72.9858 88.0433 74.0294 88.0433 75.4261C88.0433 76.8227 87.5829 77.851 86.6774 78.5109C85.7719 79.1709 84.5441 79.5085 82.9939 79.5085C80.3695 79.5085 78.5124 78.5416 77.4074 76.5925L80.5843 75.2112C80.922 76.04 81.5973 76.4544 82.5949 76.4544Z" fill="white"/>
</g>
<defs>
<filter id="filter0_d_5305_2" x="0.779297" y="0.493652" width="115.996" height="118.773" filterUnits="userSpaceOnUse" color-interpolation-filters="sRGB">
<feFlood flood-opacity="0" result="BackgroundImageFix"/>
<feColorMatrix in="SourceAlpha" type="matrix" values="0 0 0 0 0 0 0 0 0 0 0 0 0 0 0 0 0 0 127 0" result="hardAlpha"/>
<feOffset dy="4"/>
<feGaussianBlur stdDeviation="2"/>
<feComposite in2="hardAlpha" operator="out"/>
<feColorMatrix type="matrix" values="0 0 0 0 0 0 0 0 0 0 0 0 0 0 0 0 0 0 0.25 0"/>
<feBlend mode="normal" in2="BackgroundImageFix" result="effect1_dropShadow_5305_2"/>
<feBlend mode="normal" in="SourceGraphic" in2="effect1_dropShadow_5305_2" result="shape"/>
</filter>
<filter id="filter1_d_5305_2" x="25.6016" y="32.2915" width="66.4414" height="55.2173" filterUnits="userSpaceOnUse" color-interpolation-filters="sRGB">
<feFlood flood-opacity="0" result="BackgroundImageFix"/>
<feColorMatrix in="SourceAlpha" type="matrix" values="0 0 0 0 0 0 0 0 0 0 0 0 0 0 0 0 0 0 127 0" result="hardAlpha"/>
<feOffset dy="4"/>
<feGaussianBlur stdDeviation="2"/>
<feComposite in2="hardAlpha" operator="out"/>
<feColorMatrix type="matrix" values="0 0 0 0 0 0 0 0 0 0 0 0 0 0 0 0 0 0 0.25 0"/>
<feBlend mode="normal" in2="BackgroundImageFix" result="effect1_dropShadow_5305_2"/>
<feBlend mode="normal" in="SourceGraphic" in2="effect1_dropShadow_5305_2" result="shape"/>
</filter>
</defs>
</svg>
