<svg width="232" height="37" viewBox="0 0 232 37" fill="none" xmlns="http://www.w3.org/2000/svg">
<path d="M14.2893 36.5744C5.98938 36.5744 0.601734 32.1575 0.601734 24.7312H10.2607C10.2607 27.1581 12.1536 28.3715 14.2893 28.3715C16.2308 28.3715 18.1237 27.3037 18.1237 25.4593C18.1237 23.3236 15.4542 22.6927 12.2022 21.9161C7.29989 20.7026 1.03857 19.198 1.03857 11.4805C1.03857 4.78237 5.94085 0.947916 13.9495 0.947916C22.1038 0.947916 26.8119 5.12213 26.8119 12.063H17.3957C17.3957 9.8788 15.7939 8.85951 13.8524 8.85951C12.2022 8.85951 10.6004 9.58757 10.6004 11.1893C10.6004 13.1308 13.1729 13.7618 16.3278 14.5869C21.3757 15.8489 27.8797 17.5477 27.8797 25.2651C27.8797 32.6914 22.2009 36.5744 14.2893 36.5744ZM47.2416 1.72451C54.4737 1.72451 59.8613 6.91801 59.8613 14.0045C59.8613 21.1395 54.4737 26.333 47.2416 26.333H42.1452V35.7007H32.7775V1.72451H47.2416ZM46.1253 18.1787C48.6007 18.1787 50.2024 16.4799 50.2024 14.053C50.2024 11.6261 48.6007 9.92733 46.1253 9.92733H42.1452V18.1787H46.1253ZM83.8335 35.7007L81.9891 30.216H69.9518L68.0588 35.7007H58.0116L71.3594 1.72451H80.5329L94.172 35.7007H83.8335ZM79.7078 22.8868L75.9219 12.3542L72.2331 22.8868H79.7078ZM115.729 35.7007L110.196 25.3137H106.799V35.7007H97.4308V1.72451H112.186C119.467 1.72451 124.806 6.67533 124.806 13.7618C124.806 17.936 122.767 21.3822 119.418 23.3722L126.165 35.7007H115.729ZM106.799 10.0729V17.4506H111.07C113.691 17.4506 115.195 15.8489 115.195 13.7618C115.195 11.6261 113.691 10.0729 111.07 10.0729H106.799ZM160.47 35.7007H149.355L139.599 20.7026V35.7007H130.231V1.72451H139.599V16.0916L148.579 1.72451H159.451L148.579 18.2272L160.47 35.7007Z" fill="#1A1A1A"/>
<path d="M184.727 10.2186H172.544V15.6062H183.465V23.809H172.544V35.7007H163.079V1.72451H184.727V10.2186ZM189.671 35.7007V1.72451H199.184V35.7007H189.671ZM231.221 1.72451V10.17H221.999V35.7007H212.583V10.17H203.361V1.72451H231.221Z" fill="#F5A524"/>
</svg>
